HIERARCHY
ROOT Hips
{
	OFFSET 0.000000 0.000000 0.000000
	CHANNELS 6 Xposition Yposition Zposition Xrotation Yrotation Zrotation
	JOINT C_ctrl
	{
		OFFSET 0.000000 35.040482 -0.000011
		CHANNELS 3 Xrotation Yrotation Zrotation
		JOINT Bip01
		{
			OFFSET -41.537640 41.789009 -0.000007
			CHANNELS 3 Xrotation Yrotation Zrotation
			JOINT Bip01_Pelvis
			{
				OFFSET -2.462887 0.000000 0.000000
				CHANNELS 3 Xrotation Yrotation Zrotation
				JOINT BN_Tail_01
				{
					OFFSET -11.399368 7.351341 -0.000013
					CHANNELS 3 Xrotation Yrotation Zrotation
					JOINT BN_Tail_02
					{
						OFFSET -11.365196 -0.343025 0.000012
						CHANNELS 3 Xrotation Yrotation Zrotation
						JOINT BN_Tail_03
						{
							OFFSET -15.076256 -0.454979 0.000017
							CHANNELS 3 Xrotation Yrotation Zrotation
							JOINT BN_Tail_04
							{
								OFFSET -17.395691 -0.525002 0.000016
								CHANNELS 3 Xrotation Yrotation Zrotation
								JOINT BN_Tail_05
								{
									OFFSET -16.699837 -0.504005 0.000016
									CHANNELS 3 Xrotation Yrotation Zrotation
									End Site
									{
										OFFSET 0.503998 -16.699829 0.000067
									}
								}
							}
						}
					}
				}
				JOINT Bip01_Spine
				{
					OFFSET 8.297798 5.916809 -0.000020
					CHANNELS 3 Xrotation Yrotation Zrotation
					JOINT Bip01_R_Thigh
					{
						OFFSET -8.297779 -5.916794 10.541781
						CHANNELS 3 Xrotation Yrotation Zrotation
						JOINT Bip01_R_Calf
						{
							OFFSET 5.631542 -22.906792 0.862690
							CHANNELS 3 Xrotation Yrotation Zrotation
							JOINT Bip01_R_HorseLink
							{
								OFFSET -16.984341 -19.231926 -3.555767
								CHANNELS 3 Xrotation Yrotation Zrotation
								JOINT Bip01_R_Foot
								{
									OFFSET 4.290367 -24.783146 0.578056
									CHANNELS 3 Xrotation Yrotation Zrotation
									JOINT Bip01_R_Toe0
									{
										OFFSET 3.561211 -5.815116 0.760802
										CHANNELS 3 Xrotation Yrotation Zrotation
										JOINT Bip01_R_Toe0Nub
										{
											OFFSET 16.135469 0.002017 1.534789
											CHANNELS 3 Xrotation Yrotation Zrotation
											End Site
											{
												OFFSET -0.000002 16.208284 -0.000056
											}
										}
									}
								}
							}
						}
					}
					JOINT Bip01_L_Thigh
					{
						OFFSET -8.297813 -5.916832 -10.541739
						CHANNELS 3 Xrotation Yrotation Zrotation
						JOINT Bip01_L_Calf
						{
							OFFSET 5.631535 -22.906792 -0.862625
							CHANNELS 3 Xrotation Yrotation Zrotation
							JOINT Bip01_L_HorseLink
							{
								OFFSET -16.984318 -19.231949 3.555875
								CHANNELS 3 Xrotation Yrotation Zrotation
								JOINT Bip01_L_Foot
								{
									OFFSET 4.290367 -24.783169 -0.577965
									CHANNELS 3 Xrotation Yrotation Zrotation
									JOINT Bip01_L_Toe0
									{
										OFFSET 3.561245 -5.815111 -0.760799
										CHANNELS 3 Xrotation Yrotation Zrotation
										JOINT Bip01_L_Toe0Nub
										{
											OFFSET 6.574303 -0.000005 -1.538561
											CHANNELS 3 Xrotation Yrotation Zrotation
											End Site
											{
												OFFSET 0.000004 -6.751935 0.000023
											}
										}
									}
								}
							}
						}
					}
					JOINT Bip01_Spine1
					{
						OFFSET 20.556803 -4.626213 -0.000025
						CHANNELS 3 Xrotation Yrotation Zrotation
						JOINT Saddle
						{
							OFFSET 17.608810 18.174690 -0.000143
							CHANNELS 3 Xrotation Yrotation Zrotation
							End Site
							{
								OFFSET -0.000063 -0.000061 -22.448387
							}
						}
						JOINT BN_center
						{
							OFFSET 10.743275 -13.417107 -0.172041
							CHANNELS 3 Xrotation Yrotation Zrotation
							End Site
							{
								OFFSET 22.434088 0.553078 -0.579614
							}
						}
						JOINT Bip01_Spine2
						{
							OFFSET 24.765072 -2.054115 -0.000032
							CHANNELS 3 Xrotation Yrotation Zrotation
							JOINT Handle
							{
								OFFSET 63.735676 16.430748 -16.052464
								CHANNELS 3 Xrotation Yrotation Zrotation
								JOINT IK_Chain01
								{
									OFFSET -4.713058 -6.020439 0.185448
									CHANNELS 3 Xrotation Yrotation Zrotation
									End Site
									{
										OFFSET -0.000023 -0.000023 -7.648071
									}
								}
							}
							JOINT BN_hair04_01
							{
								OFFSET 1.987491 16.256981 -2.049672
								CHANNELS 3 Xrotation Yrotation Zrotation
								JOINT BN_hair04_02
								{
									OFFSET -1.318762 -3.831451 -6.174704
									CHANNELS 3 Xrotation Yrotation Zrotation
									JOINT BN_hair04_03
									{
										OFFSET -0.827490 -5.886627 -5.656666
										CHANNELS 3 Xrotation Yrotation Zrotation
										End Site
										{
											OFFSET -2.658262 5.010620 -5.929780
										}
									}
								}
							}
							JOINT Bip01_Neck
							{
								OFFSET 25.574577 9.433014 -0.000084
								CHANNELS 3 Xrotation Yrotation Zrotation
								JOINT Bip01_R_Clavicle
								{
									OFFSET -16.535652 0.011192 6.705692
									CHANNELS 3 Xrotation Yrotation Zrotation
									JOINT Bip01_R_UpperArm
									{
										OFFSET 20.272621 -12.959984 2.510816
										CHANNELS 3 Xrotation Yrotation Zrotation
										JOINT Bip01_R_Forearm
										{
											OFFSET -13.633509 -15.503704 -0.653585
											CHANNELS 3 Xrotation Yrotation Zrotation
											JOINT Bip01_R_Hand
											{
												OFFSET 2.580030 -27.804676 -1.136415
												CHANNELS 3 Xrotation Yrotation Zrotation
												JOINT Bip01_R_Finger0
												{
													OFFSET -0.281744 -19.659061 -0.398649
													CHANNELS 3 Xrotation Yrotation Zrotation
													JOINT Bip01_Xtra02
													{
														OFFSET 4.152210 -5.712314 0.433813
														CHANNELS 3 Xrotation Yrotation Zrotation
														JOINT Bip01_Xtra02Nub
														{
															OFFSET 15.457960 0.041654 0.507982
															CHANNELS 3 Xrotation Yrotation Zrotation
															End Site
															{
																OFFSET -15.421730 -0.157725 -1.163459
															}
														}
													}
													JOINT Bip01_R_Finger0Nub
													{
														OFFSET 8.362326 -9.718440 -0.143142
														CHANNELS 3 Xrotation Yrotation Zrotation
														End Site
														{
															OFFSET -1.213036 -0.198171 9.872291
														}
													}
												}
											}
										}
									}
								}
								JOINT Bip01_L_Clavicle
								{
									OFFSET -16.535673 0.011162 -6.705583
									CHANNELS 3 Xrotation Yrotation Zrotation
									JOINT Bip01_L_UpperArm
									{
										OFFSET 20.272615 -12.959999 -2.510836
										CHANNELS 3 Xrotation Yrotation Zrotation
										JOINT Bip01_L_Forearm
										{
											OFFSET -13.633495 -15.503681 0.653678
											CHANNELS 3 Xrotation Yrotation Zrotation
											JOINT Bip01_L_Hand
											{
												OFFSET 2.579988 -27.804686 1.136487
												CHANNELS 3 Xrotation Yrotation Zrotation
												JOINT Bip01_L_Finger0
												{
													OFFSET -0.281765 -19.659058 0.398696
													CHANNELS 3 Xrotation Yrotation Zrotation
													JOINT Bip01_Xtra01
													{
														OFFSET 4.083549 -5.738758 -0.666714
														CHANNELS 3 Xrotation Yrotation Zrotation
														JOINT Bip01_Xtra01Nub
														{
															OFFSET 6.758158 -0.395525 -0.023239
															CHANNELS 3 Xrotation Yrotation Zrotation
															End Site
															{
																OFFSET 6.764923 -0.254147 -0.029908
															}
														}
													}
													JOINT Bip01_L_Finger0Nub
													{
														OFFSET -0.012636 -9.629153 0.045740
														CHANNELS 3 Xrotation Yrotation Zrotation
														End Site
														{
															OFFSET 0.988407 0.004791 8.293357
														}
													}
												}
											}
										}
									}
								}
								JOINT BN_hair03_01
								{
									OFFSET -5.894140 16.270622 -2.498433
									CHANNELS 3 Xrotation Yrotation Zrotation
									JOINT BN_hair03_02
									{
										OFFSET -0.189278 -7.800507 -6.219162
										CHANNELS 3 Xrotation Yrotation Zrotation
										JOINT BN_hair03_03
										{
											OFFSET 0.612345 -10.844475 -3.370718
											CHANNELS 3 Xrotation Yrotation Zrotation
											End Site
											{
												OFFSET -2.273296 2.862007 -10.769416
											}
										}
									}
								}
								JOINT Bip01_Neck1
								{
									OFFSET 9.383755 11.908699 -0.000007
									CHANNELS 3 Xrotation Yrotation Zrotation
									JOINT BN_hair02_01
									{
										OFFSET 9.126320 18.808022 -1.420810
										CHANNELS 3 Xrotation Yrotation Zrotation
										JOINT BN_hair02_02
										{
											OFFSET 0.393478 -5.181091 -5.248574
											CHANNELS 3 Xrotation Yrotation Zrotation
											JOINT BN_hair02_03
											{
												OFFSET 0.762280 -8.167076 -0.230047
												CHANNELS 3 Xrotation Yrotation Zrotation
												End Site
												{
													OFFSET -0.025837 -1.251419 -8.109770
												}
											}
										}
									}
									JOINT Bip01_Head
									{
										OFFSET 14.266129 10.475403 -0.000008
										CHANNELS 3 Xrotation Yrotation Zrotation
										JOINT BN_Reins_01
										{
											OFFSET 18.547455 -15.740112 -0.000035
											CHANNELS 3 Xrotation Yrotation Zrotation
											JOINT BN_Reins_02
											{
												OFFSET -5.372810 -5.884506 0.000028
												CHANNELS 3 Xrotation Yrotation Zrotation
												JOINT BN_Reins_03
												{
													OFFSET -6.395866 -15.947449 0.000070
													CHANNELS 3 Xrotation Yrotation Zrotation
													JOINT BN_Halter_R_01
													{
														OFFSET -1.234055 -3.096100 7.096737
														CHANNELS 3 Xrotation Yrotation Zrotation
														End Site
														{
															OFFSET 10.514435 -4.176861 -0.000004
														}
													}
													JOINT BN_Halter_L_01
													{
														OFFSET -1.234062 -3.096146 -7.096726
														CHANNELS 3 Xrotation Yrotation Zrotation
														End Site
														{
															OFFSET -10.514435 4.176865 -0.000000
														}
													}
													JOINT BN_Reins_04
													{
														OFFSET -6.737644 -16.971684 0.000074
														CHANNELS 3 Xrotation Yrotation Zrotation
														JOINT BN_Halter_R_02
														{
															OFFSET -4.688869 -11.781956 7.096771
															CHANNELS 3 Xrotation Yrotation Zrotation
															End Site
															{
																OFFSET 14.669624 -5.827511 -0.000006
															}
														}
														JOINT BN_Halter_L_02
														{
															OFFSET -4.688892 -11.782017 -7.096693
															CHANNELS 3 Xrotation Yrotation Zrotation
															End Site
															{
																OFFSET -14.669624 5.827507 -0.000002
															}
														}
														JOINT BN_Reins_05
														{
															OFFSET -6.822578 -16.971161 0.000074
															CHANNELS 3 Xrotation Yrotation Zrotation
															JOINT BN_Reins_06
															{
																OFFSET -6.140354 -15.095148 0.000066
																CHANNELS 3 Xrotation Yrotation Zrotation
																End Site
																{
																	OFFSET -15.095150 6.140352 -0.000002
																}
															}
														}
													}
												}
											}
										}
										JOINT BN_hair01_01
										{
											OFFSET 8.957344 8.870956 0.112121
											CHANNELS 3 Xrotation Yrotation Zrotation
											JOINT BN_hair01_02
											{
												OFFSET 6.002075 -2.962952 -3.121264
												CHANNELS 3 Xrotation Yrotation Zrotation
												End Site
												{
													OFFSET 5.917702 3.813591 -2.232396
												}
											}
										}
										JOINT BN_Eyebrow_R
										{
											OFFSET 11.795959 -0.430496 4.449781
											CHANNELS 3 Xrotation Yrotation Zrotation
											JOINT Bip01_Xtra06Nub
											{
												OFFSET 2.936661 -0.262573 3.246701
												CHANNELS 3 Xrotation Yrotation Zrotation
												End Site
												{
													OFFSET 2.768745 0.208199 3.394807
												}
											}
										}
										JOINT BN_Eyebrow_L
										{
											OFFSET 11.586395 -0.445618 -4.441728
											CHANNELS 3 Xrotation Yrotation Zrotation
											JOINT Bip01_Xtra05Nub
											{
												OFFSET 3.244698 -0.349442 -4.416700
												CHANNELS 3 Xrotation Yrotation Zrotation
												End Site
												{
													OFFSET 3.053162 0.072495 -4.564033
												}
											}
										}
										JOINT Bip01_R_Ear_01
										{
											OFFSET 7.142960 7.567184 4.311657
											CHANNELS 3 Xrotation Yrotation Zrotation
											JOINT Bip01_Xtra04Nub
											{
												OFFSET 9.464531 9.264214 1.682953
												CHANNELS 3 Xrotation Yrotation Zrotation
												End Site
												{
													OFFSET 8.448181 10.159340 1.910823
												}
											}
										}
										JOINT Bip01__L_Ear_01
										{
											OFFSET 7.214943 7.717056 -4.356771
											CHANNELS 3 Xrotation Yrotation Zrotation
											JOINT Bip01_Xtra03Nub
											{
												OFFSET 9.230225 8.944366 -2.322746
												CHANNELS 3 Xrotation Yrotation Zrotation
												End Site
												{
													OFFSET 8.170288 9.841324 -2.643566
												}
											}
										}
										JOINT Bip01_Jaw
										{
											OFFSET 9.196068 -4.110695 -0.000013
											CHANNELS 3 Xrotation Yrotation Zrotation
											JOINT Bip01_Ponytail1Nub
											{
												OFFSET 10.976463 -21.082108 -0.000053
												CHANNELS 3 Xrotation Yrotation Zrotation
												End Site
												{
													OFFSET 11.247093 -20.938980 0.000113
												}
											}
										}
										JOINT Bip01_HeadNub
										{
											OFFSET 29.954575 -18.249489 -0.000063
											CHANNELS 3 Xrotation Yrotation Zrotation
											End Site
											{
												OFFSET -9.198448 -13.366348 0.000168
											}
										}
									}
								}
							}
						}
					}
				}
			}
		}
	}
}
MOTION
Frames: 4
Frame Time: 0.033333
0.000000 0.000000 0.000000 0.000008 0.000000 -0.000000 -0.000000 0.000000 -0.000000 0.270802 -0.206161 -3.487094 -0.415635 6.663977 0.184081 4.009820 4.860381 27.169330 2.791770 -3.575747 36.464123 7.153883 -3.682530 63.133440 -1.525244 1.751583 32.540538 -1.980154 5.607225 19.044295 1.134711 -5.076677 16.518995 -6.646621 6.501550 -12.761507 -0.366923 -0.026099 1.863255 -6.594674 -2.575935 36.363497 3.672139 -17.622899 -39.505999 -0.277060 0.852883 0.099603 0.000101 -0.000135 0.000004 -5.180114 -6.325506 -37.050689 1.822497 0.249660 9.324719 7.413436 3.319576 41.921369 -0.746501 13.654669 -26.700652 -0.069162 0.756019 -2.617322 -0.003824 0.006515 -0.038814 0.684059 -0.510176 -11.610585 0.917530 -0.020777 6.784392 0.163779 -0.176241 0.016953 0.398892 0.151419 -5.333100 0.000078 -0.000112 -0.000057 -0.000052 -0.014928 0.015042 -0.008328 0.000143 0.012246 12.194683 -19.213189 24.550545 10.826833 -28.375720 30.539838 1.623106 -0.630256 2.314382 -1.632031 1.068413 0.008140 -8.748660 -1.025132 -10.530747 0.175674 -0.970161 24.219771 9.893964 0.396560 -2.704552 -3.158376 0.935971 -7.564862 0.015429 -0.003238 -0.405044 -0.802230 0.160590 -0.479877 -0.804179 0.123474 -0.482668 -1.604028 2.350619 -12.511914 -1.713267 -4.723576 32.705019 -0.162372 0.937379 23.355777 -4.756092 0.537145 -16.418170 6.169253 -0.102908 -14.519744 2.479190 1.753844 -0.631674 0.036636 0.063819 2.451859 -0.000913 0.100573 2.451956 3.230679 0.177816 -0.632607 -2.382521 -5.748713 20.697351 0.101954 -8.679896 24.010118 -0.690331 1.000741 -14.291038 6.573502 -0.696527 -1.444326 -0.241210 -0.029938 6.312388 -5.712261 0.488153 3.236269 -2.264739 -1.364746 -14.310057 -0.000029 0.000324 33.480057 -0.441787 -0.458728 -72.796156 -0.000060 -0.000072 -21.993984 0.000020 -0.000008 -0.026807 0.000002 -0.000016 0.012745 -0.000095 -0.000110 -34.639871 0.000036 0.000015 0.015166 0.000025 -0.000010 0.012723 -0.000048 -0.000055 -24.223449 0.000013 -0.000013 -0.000050 -0.073027 0.030622 0.020254 26.047183 4.008871 50.094055 -0.012887 0.003645 0.005525 0.024187 -0.030002 11.786622 0.012330 -0.002697 0.003938 0.023216 -0.032303 11.716011 -0.019490 -0.070082 0.338084 0.050266 0.015087 11.755987 -0.108739 -0.002448 0.251112 0.050137 0.014758 11.743111 0.826979 0.618450 8.090145 -0.004534 -0.052586 11.750667 0.000081 -0.000037 11.750673 
0.000000 0.000000 0.000000 0.000008 0.000000 -0.000000 -0.000000 0.000000 -0.000000 0.333219 -0.245048 -4.184447 -0.503068 7.220740 0.225866 4.217070 5.443485 27.680303 1.654121 -2.340048 33.628477 7.502032 -3.830513 63.256964 -0.924219 0.752334 34.918536 -1.725159 4.709824 19.854687 1.287371 -5.362976 17.831268 -7.225475 6.757951 -11.969839 0.014222 0.000768 -0.072164 -7.065090 -2.985348 39.497864 2.255066 -19.275173 -42.625998 -0.300873 0.508889 0.117042 0.000101 -0.000139 0.000004 -5.919790 -6.468178 -37.857474 1.834372 0.252293 9.386276 7.967002 3.914049 45.998083 0.128479 14.085534 -30.960715 0.000239 0.863942 -2.441880 -0.003824 0.006516 -0.038814 0.769421 -0.561074 -11.555772 0.917530 -0.020777 6.784391 0.148692 -0.176657 0.017302 0.463226 -0.111412 -5.318092 0.000078 -0.000112 -0.000056 -0.000051 -0.014928 0.015042 -0.008333 0.000144 0.012247 11.230886 -18.437489 23.210465 15.330600 -27.832304 33.493325 1.503888 -0.679827 1.951737 -1.520725 1.078969 0.224302 -9.711798 -0.717895 -11.559074 0.219634 -1.070263 26.886304 10.451477 -0.168337 -4.392471 -3.116575 0.932244 -7.924117 0.014192 -0.003359 -0.483044 -0.802257 0.160590 -0.479879 -0.804179 0.123473 -0.482668 -1.492333 2.462453 -12.626106 -2.602621 -5.129686 33.480539 -0.168082 0.951732 23.732459 -4.142004 0.295585 -16.962691 6.153284 -0.104968 -14.977201 2.389361 1.669548 -0.600587 0.036662 0.063820 2.451861 -0.000913 0.100573 2.451954 4.029699 0.157860 -0.822874 -3.423808 -5.595482 19.675014 0.526494 -9.229765 25.718917 -0.723294 0.978994 -15.898988 7.959725 -0.375807 -1.372249 -0.779374 -0.015573 5.422356 -6.144703 0.387225 2.505749 -2.345093 -1.323544 -14.813868 -0.000029 0.000324 33.480064 -0.441787 -0.458728 -72.796149 -0.000060 -0.000072 -21.993984 0.000020 -0.000008 -0.026803 0.000002 -0.000016 0.012749 -0.000095 -0.000110 -34.639871 0.000036 0.000015 0.015166 0.000025 -0.000010 0.012721 -0.000048 -0.000055 -24.223459 0.000013 -0.000013 -0.000050 -0.073036 0.030633 0.020255 25.359674 3.518477 48.651533 -0.012888 0.003645 0.005527 0.024201 -0.029995 11.786649 0.012011 -0.003461 0.003936 0.023229 -0.032303 11.715989 -0.027397 -0.065258 0.337955 0.050281 0.015111 11.755991 -0.111960 -0.002847 0.276344 0.050151 0.014782 11.743105 0.872447 0.622665 7.994888 -0.004517 -0.052607 11.750671 0.000081 -0.000037 11.750672 
0.000000 0.000000 0.000000 0.000008 0.000000 -0.000000 -0.000000 0.000000 -0.000000 0.404093 -0.279296 -4.801756 -0.583019 7.688535 0.267749 4.460901 5.976668 27.817366 0.691224 -1.054603 31.478190 7.314823 -3.940654 61.970136 -0.043874 -0.435569 38.174402 -1.462957 3.833480 20.652296 1.411758 -5.584507 19.093575 -7.795502 7.032490 -11.179145 0.414059 0.015083 -2.098943 -7.458652 -3.364922 42.243767 0.812670 -20.710370 -45.333502 -0.296660 0.239531 0.121263 0.000101 -0.000137 0.000004 -6.589383 -6.593206 -38.495250 1.798007 0.244278 9.197822 8.411477 4.459512 49.526494 0.985075 14.392103 -34.589505 0.062007 0.933705 -2.307497 -0.003824 0.006513 -0.038814 0.844672 -0.604172 -11.388814 0.917530 -0.020777 6.784391 0.133900 -0.177038 0.017631 0.519561 -0.365606 -5.316840 0.000077 -0.000112 -0.000055 -0.000052 -0.014928 0.015042 -0.008329 0.000143 0.012244 9.164032 -16.680382 20.384679 21.779149 -26.869032 37.702183 1.388661 -0.719260 1.518275 -1.405442 1.080710 0.502475 -10.581339 -0.411221 -12.079587 0.247311 -1.127471 28.436296 10.927994 -0.666065 -5.706755 -3.072837 0.927907 -8.269357 0.012916 -0.003683 -0.559491 -0.802283 0.160590 -0.479881 -0.804179 0.123473 -0.482668 -1.387501 2.564321 -12.657689 -3.415244 -5.492792 34.208162 -0.162820 0.938517 23.385617 -3.590391 0.048011 -16.877922 6.137608 -0.106862 -15.425765 2.301094 1.586797 -0.570222 0.036689 0.063820 2.451861 -0.000913 0.100573 2.451956 5.024951 0.136793 -1.071070 -5.202949 -5.244883 17.606624 0.959525 -9.756393 27.401204 -0.753792 0.964869 -17.364045 9.655725 -0.000134 -1.289161 -1.670069 0.003028 4.105686 -6.569940 0.293574 1.788687 -2.414100 -1.263867 -15.374305 -0.000029 0.000324 33.480057 -0.441787 -0.458728 -72.796149 -0.000060 -0.000072 -21.993986 0.000020 -0.000008 -0.026805 0.000002 -0.000016 0.012747 -0.000095 -0.000110 -34.639871 0.000036 0.000015 0.015168 0.000025 -0.000010 0.012723 -0.000048 -0.000055 -24.223452 0.000013 -0.000013 -0.000051 -0.073037 0.030631 0.020257 23.594716 2.383422 45.078101 -0.012888 0.003647 0.005526 0.024221 -0.029987 11.786672 0.011681 -0.004233 0.003941 0.023244 -0.032295 11.715967 -0.035159 -0.060528 0.337839 0.050292 0.015135 11.755988 -0.115120 -0.003241 0.301082 0.050161 0.014804 11.743096 0.917045 0.626741 7.901472 -0.004499 -0.052628 11.750671 0.000081 -0.000037 11.750674 
0.000000 0.000000 0.000000 0.000008 0.000000 -0.000000 -0.000000 0.000000 -0.000000 0.481187 -0.299615 -5.319847 -0.659045 8.061361 0.315261 4.921721 6.369452 26.878283 -0.133647 0.222602 30.461407 6.553367 -4.032706 58.692403 1.145122 -1.713657 41.535183 -1.049834 2.591857 22.068739 1.503095 -5.739162 20.303864 -8.348826 7.326688 -10.378431 0.846520 0.014646 -4.289763 -7.778502 -3.701875 44.575406 -0.586677 -21.951367 -47.516123 -0.267789 0.098621 0.116637 0.000101 -0.000136 0.000004 -7.201275 -6.699508 -39.049841 1.721512 0.227827 8.801819 8.762480 4.943895 52.524558 1.808167 14.620466 -37.567997 0.115282 0.878300 -2.215719 -0.003824 0.006512 -0.038814 0.902999 -0.634362 -11.076878 0.917530 -0.020777 6.784388 0.118962 -0.177464 0.017966 0.566156 -0.608222 -5.343446 0.000078 -0.000112 -0.000055 -0.000052 -0.014928 0.015042 -0.008329 0.000144 0.012245 5.459827 -14.311848 17.131643 25.670370 -25.689137 40.198327 1.271017 -0.751283 1.001450 -1.291037 1.069666 0.846721 -11.328960 -0.117493 -12.001272 0.251050 -1.134903 28.639186 11.316206 -1.054039 -6.599355 -3.032195 0.923501 -8.618331 0.011669 -0.003893 -0.636713 -0.802338 0.160589 -0.479885 -0.804179 0.123473 -0.482668 -1.289017 2.657213 -12.611159 -4.133034 -5.800373 34.947711 -0.143568 0.888040 22.068229 -3.110659 -0.171227 -15.981934 6.121761 -0.108655 -15.878740 2.211929 1.503188 -0.539665 0.036744 0.063820 2.451859 -0.000913 0.100573 2.451957 6.072733 0.118854 -1.295226 -6.858960 -4.737056 15.018404 0.500286 -10.091465 27.424973 -0.787057 0.945694 -18.699736 11.503568 0.390688 -1.208151 -2.419493 0.013330 3.296272 -6.388988 0.130718 0.756786 -2.466616 -1.169632 -16.026248 -0.000030 0.000324 33.480068 -0.441787 -0.458728 -72.796156 -0.000060 -0.000072 -21.993989 0.000020 -0.000008 -0.026807 0.000002 -0.000016 0.012745 -0.000095 -0.000110 -34.639875 0.000036 0.000015 0.015165 0.000025 -0.000010 0.012720 -0.000048 -0.000055 -24.223454 0.000013 -0.000013 -0.000050 -0.073048 0.030638 0.020256 20.218697 -0.197193 39.531984 -0.012887 0.003645 0.005539 0.024254 -0.029982 11.786705 0.011363 -0.005001 0.003946 0.023275 -0.032294 11.715916 -0.042997 -0.055758 0.337737 0.050315 0.015182 11.756012 -0.118314 -0.003650 0.326064 0.050186 0.014852 11.743087 0.963104 0.632159 7.794660 -0.004464 -0.052670 11.750669 0.000081 -0.000037 11.750679 
